<svg width="538" height="538" viewBox="0 0 538 538" fill="none" xmlns="http://www.w3.org/2000/svg">
<path fill-rule="evenodd" clip-rule="evenodd" d="M116.925 0C52.3493 0 0 52.3493 0 116.925V420.932C0 485.508 52.3493 537.857 116.925 537.857H420.932C485.508 537.857 537.857 485.508 537.857 420.932V116.925C537.857 52.3493 485.508 0 420.932 0H116.925ZM135.472 151.221C104.284 159.578 85.7754 191.635 94.1322 222.823C102.489 254.011 134.546 272.519 165.734 264.163C196.922 255.806 215.43 223.749 207.074 192.561C198.717 161.373 166.66 142.864 135.472 151.221ZM325.056 181.124C319.485 160.332 331.823 138.961 352.615 133.39C373.407 127.819 394.779 140.157 400.35 160.949C405.921 181.741 393.582 203.113 372.79 208.684C351.998 214.255 330.627 201.916 325.056 181.124ZM422.846 251.668C421.405 238.834 408.393 231.421 395.918 234.763L267.918 269.061L139.917 303.358C127.442 306.701 119.88 319.627 125.05 331.462C138.297 361.792 160.955 387.325 189.967 404.075C225.775 424.749 268.329 430.351 308.268 419.649C348.206 408.948 382.258 382.819 402.931 347.011C419.682 317.999 426.538 284.558 422.846 251.668Z" fill="#F205E2"/>
</svg>
