<svg width="2510" height="538" viewBox="0 0 2510 538" fill="none" xmlns="http://www.w3.org/2000/svg">
<path d="M711.965 487.203C705.065 479.198 701.908 468.643 701.908 458.048V268.401C701.908 257.335 705.806 247.447 713.563 238.735C722.84 229.161 733.404 224.413 745.294 224.413L785.132 224.727H875.763C889.368 224.727 900.945 220.096 910.573 210.875C920.163 201.653 925.503 189.96 926.595 175.834C926.361 175.166 926.283 174.539 926.283 173.872C926.283 159.313 921.371 147.11 911.548 137.221C901.725 127.333 889.679 122.389 875.451 122.389H784.781L744.943 122.703C733.287 122.703 723.152 118.308 714.498 109.518C705.728 100.571 701.401 89.9764 701.557 77.7727C701.713 66.6286 706.273 55.7591 714.07 47.8718C722.49 39.3175 732.664 35.0796 744.592 35.0796H779.246L839.472 35.3935H873.151C873.814 35.1581 874.555 35.0796 875.412 35.0796C878.648 35.0796 882.117 35.1973 885.781 35.3935C921.605 34.7264 949.866 45.282 970.604 67.021C980.739 75.7323 989.471 85.9347 996.838 97.6674L999.099 100.61C999.294 100.846 999.528 101.16 999.762 101.591C1011.85 123.958 1017.69 147.855 1017.23 173.283C1017.42 211.542 1005.14 244.111 980.31 271.069C953.764 298.027 918.798 311.486 875.412 311.486L788.017 312.153V458.126C788.017 468.682 784.859 479.277 777.96 487.282C769.072 497.602 758.04 502.781 744.943 502.781C731.845 502.781 720.852 497.602 711.926 487.282L711.965 487.203Z" fill="white"/>
<path d="M1195.08 491.667C1185.53 482.861 1180.95 469.829 1180.95 456.796V80.344C1180.95 68.2509 1185.06 56.1969 1193.56 47.6652C1203.46 37.7637 1215.77 33.6935 1230.44 35.4938C1237.23 36.3157 1243.75 39.0552 1249.15 43.2819C1260.83 52.479 1266.69 64.1024 1266.69 78.1524V456.757C1266.69 469.79 1262.11 482.861 1252.56 491.628C1244.49 499.064 1234.9 502.781 1223.8 502.781C1212.7 502.781 1203.11 499.064 1195.04 491.628L1195.08 491.667Z" fill="white"/>
<path d="M1473.38 502.468C1463.44 502.233 1454.59 499.105 1446.84 493.044C1437.33 485.262 1431.95 475.681 1430.66 464.301C1429.38 452.921 1432.38 442.285 1439.74 432.313L1568.24 268.929L1439.74 105.233C1432.42 95.2612 1429.38 84.6245 1430.66 73.2447C1431.95 61.865 1437.37 52.2841 1446.84 44.5021C1454.83 38.2452 1463.67 35.0776 1473.38 35.0776C1486.55 35.0776 1497.78 40.5915 1507.05 51.6584L1623.28 199.126L1739.15 51.6584C1748.43 40.6306 1759.77 35.0776 1773.14 35.0776C1782.65 35.0776 1791.49 38.2061 1799.68 44.5021C1808.95 52.2841 1814.29 61.865 1815.7 73.2447C1817.1 84.6245 1814.14 95.3003 1806.81 105.233L1507.05 485.887C1497.78 496.915 1486.55 502.468 1473.38 502.468Z" fill="white"/>
<path d="M2342.07 73.0212C2340.79 61.7672 2335.49 52.2326 2326.21 44.4564C2325.98 44.4564 2325.9 44.3392 2325.9 44.1438C2316.19 36.9929 2305.59 34.1012 2294.17 35.3908C2282.95 36.6803 2273.44 41.9946 2265.68 51.2948L2265.37 51.6074L2149.5 198.964L2106.12 253.553V459.251C2106.12 471.169 2110.33 481.446 2118.74 490.082C2127.36 498.522 2137.61 502.743 2149.5 502.743C2164.73 502.743 2177.28 495.631 2187.18 481.368C2190.93 475.936 2192.87 469.45 2192.87 462.846V282.978L2333.03 104.868H2333.34C2340.47 95.1383 2343.36 84.5487 2342.07 73.0602V73.0212Z" fill="white"/>
<rect x="1780.76" y="338.561" width="116.925" height="116.925" rx="31.1801" transform="rotate(38.1453 1780.76 338.561)" fill="#00E0FF"/>
<rect x="1946.85" y="127.079" width="116.925" height="116.925" rx="31.1801" transform="rotate(-51.8547 1946.85 127.079)" fill="#F205E2"/>
<path fill-rule="evenodd" clip-rule="evenodd" d="M116.925 0C52.3493 0 0 52.3493 0 116.925V420.932C0 485.508 52.3493 537.857 116.925 537.857H420.932C485.508 537.857 537.857 485.508 537.857 420.932V116.925C537.857 52.3493 485.508 0 420.932 0H116.925ZM135.472 151.221C104.284 159.578 85.7754 191.635 94.1322 222.823C102.489 254.011 134.546 272.519 165.734 264.163C196.922 255.806 215.43 223.749 207.074 192.561C198.717 161.373 166.66 142.864 135.472 151.221ZM325.056 181.124C319.485 160.332 331.823 138.961 352.615 133.39C373.407 127.819 394.779 140.157 400.35 160.949C405.921 181.741 393.582 203.113 372.79 208.684C351.998 214.255 330.627 201.916 325.056 181.124ZM422.846 251.668C421.405 238.834 408.393 231.421 395.918 234.763L267.918 269.061L139.917 303.358C127.442 306.701 119.88 319.627 125.05 331.462C138.297 361.792 160.955 387.325 189.967 404.075C225.775 424.749 268.329 430.351 308.268 419.649C348.206 408.948 382.258 382.819 402.931 347.011C419.682 317.999 426.538 284.558 422.846 251.668Z" fill="#F205E2"/>
<path d="M2457.38 91.5916V55.637H2475.6C2477.07 55.637 2478.66 56.0593 2480.38 56.9037C2482.1 57.7157 2483.56 58.9824 2484.76 60.7038C2486 62.3927 2486.61 64.5364 2486.61 67.1347C2486.61 69.7655 2485.98 72.0066 2484.71 73.8579C2483.45 75.6768 2481.9 77.0571 2480.09 77.999C2478.3 78.9409 2476.61 79.4119 2475.02 79.4119H2461.86V73.5656H2472.58C2473.65 73.5656 2474.81 73.0297 2476.04 71.9579C2477.31 70.8861 2477.94 69.2783 2477.94 67.1347C2477.94 64.9261 2477.31 63.4321 2476.04 62.6526C2474.81 61.8731 2473.72 61.4833 2472.78 61.4833H2465.28V91.5916H2457.38ZM2479.11 74.6374L2488.08 91.5916H2479.4L2470.63 74.6374H2479.11ZM2471.02 113.028C2465.63 113.028 2460.58 112.021 2455.87 110.007C2451.16 107.994 2447.02 105.2 2443.45 101.628C2439.88 98.055 2437.08 93.9139 2435.07 89.2044C2433.06 84.4949 2432.05 79.4444 2432.05 74.0528C2432.05 68.6612 2433.06 63.6107 2435.07 58.9012C2437.08 54.1917 2439.88 50.0506 2443.45 46.4779C2447.02 42.9052 2451.16 40.1119 2455.87 38.0982C2460.58 36.0845 2465.63 35.0776 2471.02 35.0776C2476.42 35.0776 2481.47 36.0845 2486.18 38.0982C2490.89 40.1119 2495.03 42.9052 2498.6 46.4779C2502.17 50.0506 2504.96 54.1917 2506.98 58.9012C2508.99 63.6107 2510 68.6612 2510 74.0528C2510 79.4444 2508.99 84.4949 2506.98 89.2044C2504.96 93.9139 2502.17 98.055 2498.6 101.628C2495.03 105.2 2490.89 107.994 2486.18 110.007C2481.47 112.021 2476.42 113.028 2471.02 113.028ZM2471.02 103.674C2476.48 103.674 2481.45 102.342 2485.93 99.6789C2490.41 97.0156 2493.99 93.4429 2496.65 88.9608C2499.31 84.4786 2500.65 79.5093 2500.65 74.0528C2500.65 68.5963 2499.31 63.6269 2496.65 59.1448C2493.99 54.6626 2490.41 51.0899 2485.93 48.4266C2481.45 45.7633 2476.48 44.4317 2471.02 44.4317C2465.57 44.4317 2460.6 45.7633 2456.12 48.4266C2451.63 51.0899 2448.06 54.6626 2445.4 59.1448C2442.73 63.6269 2441.4 68.5963 2441.4 74.0528C2441.4 79.5093 2442.73 84.4786 2445.4 88.9608C2448.06 93.4429 2451.63 97.0156 2456.12 99.6789C2460.6 102.342 2465.57 103.674 2471.02 103.674Z" fill="white"/>
</svg>
